<svg xmlns="http://www.w3.org/2000/svg" viewBox="0 0 600 640" width="720" height="768" role="img" aria-labelledby="t d"><title id="t">Valor por m² por faixa de metragem</title><desc id="d">Curva em U: até 20 m²: R$ 4.077 por m² (13 contratos); 20 a 24 m²: R$ 2.980 por m² (29 contratos); 24 a 28 m²: R$ 2.645 por m² (70 contratos); 28 a 32 m²: R$ 2.524 por m² (48 contratos); 32 a 40 m²: R$ 2.826 por m² (17 contratos); mais de 40 m²: R$ 2.740 por m² (11 contratos)</desc><style>.s{font-family:Manrope, 'Helvetica Neue', Helvetica, Arial, sans-serif}.m{font-family:'JetBrains Mono', Menlo, Consolas, monospace}</style><rect width="600" height="640" fill="#FFFFFF"/><text x="32" y="44" class="m" font-size="13" font-weight="700" fill="#11355B" letter-spacing="1.5">A CURVA EM U</text><text x="32" y="78" class="s" font-size="24" font-weight="700" fill="#1A2332" letter-spacing="-0.5">O m² mais barato está</text><text x="32" y="108" class="s" font-size="24" font-weight="700" fill="#1A2332" letter-spacing="-0.5">entre 24 e 32 m²</text><text x="32" y="140" class="s" font-size="15" fill="#5A6472">Mediana do valor por m² por faixa de metragem (ponto)</text><text x="32" y="161" class="s" font-size="15" fill="#5A6472">e metade central de cada faixa (barra).</text><line x1="150" y1="202" x2="150" y2="550" stroke="#E7E2D9" stroke-width="1"/><text x="150" y="570" class="m" font-size="13" fill="#5A6472" text-anchor="middle">2.000</text><line x1="225.9" y1="202" x2="225.9" y2="550" stroke="#E7E2D9" stroke-width="1"/><text x="225.9" y="570" class="m" font-size="13" fill="#5A6472" text-anchor="middle">2.500</text><line x1="301.9" y1="202" x2="301.9" y2="550" stroke="#E7E2D9" stroke-width="1"/><text x="301.9" y="570" class="m" font-size="13" fill="#5A6472" text-anchor="middle">3.000</text><line x1="377.8" y1="202" x2="377.8" y2="550" stroke="#E7E2D9" stroke-width="1"/><path d="M465.5,226.0 L298.9,284.0 L247.9,342.0 L229.5,400.0 L275.5,458.0 L262.3,516" fill="none" stroke="#2F6FA8" stroke-width="1.5" stroke-dasharray="0" opacity=".35"/><text x="377.8" y="570" class="m" font-size="13" fill="#5A6472" text-anchor="middle">3.500</text><line x1="453.7" y1="202" x2="453.7" y2="550" stroke="#E7E2D9" stroke-width="1"/><text x="453.7" y="570" class="m" font-size="13" fill="#5A6472" text-anchor="middle">4.000</text><line x1="529.6" y1="202" x2="529.6" y2="550" stroke="#E7E2D9" stroke-width="1"/><text x="529.6" y="570" class="m" font-size="13" fill="#5A6472" text-anchor="middle">4.500</text><text x="560" y="586" class="s" font-size="13" fill="#5A6472" text-anchor="end">R$ por m²</text><text x="32" y="228" class="s" font-size="14.5" font-weight="600" fill="#1A2332">até 20 m²</text><text x="32" y="246" class="m" font-size="13" fill="#5A6472">13 contratos</text><line x1="401.7" y1="226" x2="516.2" y2="226" stroke="#CFE2F0" stroke-width="12" stroke-linecap="round"/><circle cx="465.5" cy="226" r="7" fill="#2F6FA8" stroke="#fff" stroke-width="2"/><text x="465.5" y="212" class="s" font-size="13" font-weight="700" fill="#1A2332" text-anchor="middle">R$ 4.077</text><text x="32" y="286" class="s" font-size="14.5" font-weight="600" fill="#1A2332">20 a 24 m²</text><text x="32" y="304" class="m" font-size="13" fill="#5A6472">29 contratos</text><line x1="270.8" y1="284" x2="359.7" y2="284" stroke="#CFE2F0" stroke-width="12" stroke-linecap="round"/><circle cx="298.9" cy="284" r="7" fill="#2F6FA8" stroke="#fff" stroke-width="2"/><text x="298.9" y="270" class="s" font-size="13" font-weight="700" fill="#1A2332" text-anchor="middle">R$ 2.980</text><text x="32" y="344" class="s" font-size="14.5" font-weight="600" fill="#1A2332">24 a 28 m²</text><text x="32" y="362" class="m" font-size="13" fill="#5A6472">70 contratos</text><line x1="220.6" y1="342" x2="281.9" y2="342" stroke="#CFE2F0" stroke-width="12" stroke-linecap="round"/><circle cx="247.9" cy="342" r="7" fill="#D07A3E" stroke="#fff" stroke-width="2"/><text x="247.9" y="328" class="s" font-size="13" font-weight="700" fill="#1A2332" text-anchor="middle">R$ 2.645</text><text x="32" y="402" class="s" font-size="14.5" font-weight="600" fill="#1A2332">28 a 32 m²</text><text x="32" y="420" class="m" font-size="13" fill="#5A6472">48 contratos</text><line x1="196.5" y1="400" x2="278.3" y2="400" stroke="#CFE2F0" stroke-width="12" stroke-linecap="round"/><circle cx="229.5" cy="400" r="7" fill="#D07A3E" stroke="#fff" stroke-width="2"/><text x="229.5" y="386" class="s" font-size="13" font-weight="700" fill="#1A2332" text-anchor="middle">R$ 2.524</text><text x="32" y="460" class="s" font-size="14.5" font-weight="600" fill="#1A2332">32 a 40 m²</text><text x="32" y="478" class="m" font-size="13" fill="#5A6472">17 contratos</text><line x1="210.2" y1="458" x2="305.8" y2="458" stroke="#CFE2F0" stroke-width="12" stroke-linecap="round"/><circle cx="275.5" cy="458" r="7" fill="#2F6FA8" stroke="#fff" stroke-width="2"/><text x="275.5" y="444" class="s" font-size="13" font-weight="700" fill="#1A2332" text-anchor="middle">R$ 2.826</text><text x="32" y="518" class="s" font-size="14.5" font-weight="600" fill="#1A2332">mais de 40 m²</text><text x="32" y="536" class="m" font-size="13" fill="#5A6472">11 contratos</text><line x1="224.8" y1="516" x2="370.6" y2="516" stroke="#CFE2F0" stroke-width="12" stroke-linecap="round"/><circle cx="262.3" cy="516" r="7" fill="#2F6FA8" stroke="#fff" stroke-width="2"/><text x="262.3" y="502" class="s" font-size="13" font-weight="700" fill="#1A2332" text-anchor="middle">R$ 2.740</text><line x1="32" y1="596" x2="568" y2="596" stroke="#E7E2D9" stroke-width="1"/><text x="32" y="618" class="m" font-size="13" fill="#5A6472">Fonte: base Bewild, 188 contratos turnkey</text><text x="568" y="618" class="m" font-size="13" font-weight="700" fill="#11355B" text-anchor="end">bewild.com.br</text></svg>