<svg xmlns="http://www.w3.org/2000/svg" width="420" height="402" viewBox="0 0 420 402" role="img" font-family="system-ui,-apple-system,Segoe UI,Roboto,Arial,sans-serif">
<rect width="420" height="402" fill="#FFFFFF"/>
<text x="20" y="34" font-size="19" font-weight="700" fill="#1F2937">Meses de aluguel bruto para</text>
<text x="20" y="58" font-size="19" font-weight="700" fill="#1F2937">cobrir a reforma completa</text>
<text x="20" y="82" font-size="13" fill="#4B5563">Custo por m² da reforma ÷ aluguel anunciado</text>
<text x="20" y="100" font-size="13" fill="#4B5563">por m² ao mês (antes de vacância, IR e taxas)</text>
<text x="20" y="140" font-size="13" fill="#1F2937">Pinheiros</text>
<rect x="20" y="146" width="145" height="18" rx="2" fill="#0F4C5C"/>
<path d="M150 155H185M150 150v10M185 150v10" stroke="#1F2937" stroke-width="1.5" fill="none"/>
<text x="191" y="160" font-size="13" font-weight="600" fill="#1F2937">28 meses</text>
<text x="20" y="190" font-size="13" fill="#1F2937">Itaim Bibi</text>
<rect x="20" y="196" width="157" height="18" rx="2" fill="#0F4C5C"/>
<path d="M161 205H199M161 200v10M199 200v10" stroke="#1F2937" stroke-width="1.5" fill="none"/>
<text x="205" y="210" font-size="13" font-weight="600" fill="#1F2937">29 meses</text>
<text x="20" y="240" font-size="13" fill="#1F2937">Moema</text>
<rect x="20" y="246" width="170" height="18" rx="2" fill="#0F4C5C"/>
<path d="M172 255H213M172 250v10M213 250v10" stroke="#1F2937" stroke-width="1.5" fill="none"/>
<text x="219" y="260" font-size="13" font-weight="600" fill="#1F2937">32 meses</text>
<text x="20" y="290" font-size="13" fill="#1F2937">Média de SP</text>
<rect x="20" y="296" width="225" height="18" rx="2" fill="#E07A1F"/>
<path d="M221 305H276M221 300v10M276 300v10" stroke="#1F2937" stroke-width="1.5" fill="none"/>
<text x="282" y="310" font-size="13" font-weight="600" fill="#1F2937">42 meses</text>
<text x="20" y="370" font-size="12" fill="#9CA3AF">Fontes: base Bewild, 188 contratos;</text>
<text x="20" y="388" font-size="12" fill="#9CA3AF">FipeZap locação residencial, ago/2026.</text>
</svg>
