<svg xmlns="http://www.w3.org/2000/svg" width="720" height="398" viewBox="0 0 720 398" role="img" font-family="system-ui,-apple-system,Segoe UI,Roboto,Arial,sans-serif">
<rect width="720" height="398" fill="#FFFFFF"/>
<text x="20" y="34" font-size="19" font-weight="700" fill="#1F2937">Taxa de juros ao mês por modalidade de crédito para reforma</text>
<text x="20" y="58" font-size="13" fill="#4B5563">% ao mês. O CDI aparece como referência: é quanto o dinheiro aplicado rende antes do IR</text>
<text x="255" y="101" font-size="13" text-anchor="end" fill="#1F2937">Crédito pessoal não consignado</text>
<rect x="263" y="88" width="278" height="18" rx="2" fill="#E07A1F"/>
<text x="547" y="102" font-size="13" font-weight="600" fill="#1F2937">6,39% a.m.</text>
<text x="255" y="135" font-size="13" text-anchor="end" fill="#1F2937">Consignado</text>
<rect x="263" y="122" width="92" height="18" rx="2" fill="#0F4C5C"/>
<text x="361" y="136" font-size="13" font-weight="600" fill="#1F2937">2,11% a.m.</text>
<text x="255" y="169" font-size="13" text-anchor="end" fill="#1F2937">Reforma Casa Brasil, faixa 2</text>
<rect x="263" y="156" width="85" height="18" rx="2" fill="#0F4C5C"/>
<text x="354" y="170" font-size="13" font-weight="600" fill="#1F2937">1,95% a.m.</text>
<text x="255" y="203" font-size="13" text-anchor="end" fill="#1F2937">Garantia de imóvel (máx.)</text>
<rect x="263" y="190" width="85" height="18" rx="2" fill="#0F4C5C"/>
<text x="354" y="204" font-size="13" font-weight="600" fill="#1F2937">1,95% a.m.</text>
<text x="255" y="237" font-size="13" text-anchor="end" fill="#1F2937">Garantia de imóvel (mín.)</text>
<rect x="263" y="224" width="58" height="18" rx="2" fill="#0F4C5C"/>
<text x="327" y="238" font-size="13" font-weight="600" fill="#1F2937">1,33% a.m.</text>
<text x="255" y="271" font-size="13" text-anchor="end" fill="#1F2937">Reforma Casa Brasil, faixa 1</text>
<rect x="263" y="258" width="51" height="18" rx="2" fill="#0F4C5C"/>
<text x="320" y="272" font-size="13" font-weight="600" fill="#1F2937">1,17% a.m.</text>
<text x="255" y="305" font-size="13" text-anchor="end" fill="#1F2937">CDI (rendimento, referência)</text>
<rect x="263" y="292" width="47" height="18" rx="2" fill="#0F4C5C"/>
<text x="316" y="306" font-size="13" font-weight="600" fill="#1F2937">1,07% a.m.</text>
<text x="20" y="366" font-size="12" fill="#9CA3AF">Fontes: Banco Central, séries 20742 (ago/2026) e 20747 (jul/2026, 28,43% a.a.); Caixa, Reforma Casa Brasil e</text>
<text x="20" y="384" font-size="12" fill="#9CA3AF">Reforma com Garantia de Imóvel (nov/2025); CDI estimado a partir da Selic de 13,75% (Copom, 16/09/2026).</text>
</svg>
